<!DOCTYPE svg PUBLIC "-//W3C//DTD SVG 1.1//EN" "http://www.w3.org/Graphics/SVG/1.1/DTD/svg11.dtd">
<!-- Uploaded to: SVG Repo, www.svgrepo.com, Transformed by: SVG Repo Mixer Tools -->
<svg fill="#9e9efa" height="64px" width="64px" version="1.1" id="Capa_1" xmlns="http://www.w3.org/2000/svg" xmlns:xlink="http://www.w3.org/1999/xlink" viewBox="0 0 452.42 452.42" xml:space="preserve" transform="matrix(1, 0, 0, 1, 0, 0)" stroke="#9e9efa">
<g id="SVGRepo_bgCarrier" stroke-width="0"/>
<g id="SVGRepo_tracerCarrier" stroke-linecap="round" stroke-linejoin="round"/>
<g id="SVGRepo_iconCarrier"> <path d="M441.534,51.195c-1.32-4.151-5.175-6.97-9.53-6.97c-97.321,0-192.355,11.653-282.458,34.637 c-2.272,0.579-4.604,1.174-5.787,1.449c-7.891-0.821-23.576-15.667-34.056-25.588C94.521,40.351,82.53,28.999,70.91,28.999H10 c-5.523,0-10,4.477-10,10c0,5.523,4.477,10,10,10h50.91v27.116H10c-5.523,0-10,4.477-10,10c0,5.523,4.477,10,10,10h50.91v27.116H10 c-5.523,0-10,4.477-10,10c0,5.523,4.477,10,10,10h50.91v27.116H10c-5.523,0-10,4.477-10,10c0,5.523,4.477,10,10,10h50.91v27.116H10 c-5.523,0-10,4.477-10,10c0,5.523,4.477,10,10,10h60.91c11.62,0,23.612-11.352,38.793-25.724 c10.295-9.746,25.611-24.24,33.629-25.526c10.509,3.036,64.581,17.911,146.82,27.629L266.34,348.887c0,0.001,0,0.002-0.001,0.003 c0,0.001,0,0.002,0,0.003l-6.012,34.093c-1.632,9.249,2.64,18.697,11.719,25.923c7.833,6.233,18.911,10.751,32.039,13.066 c5.461,0.963,10.771,1.451,15.782,1.451c21.339,0,36.157-8.86,38.672-23.123l31.529-178.811c2.442,0.086,4.883,0.155,7.325,0.226 c0.256,0.02,0.51,0.031,0.764,0.031c0.035,0,0.069-0.004,0.104-0.004c11.321,0.322,22.615,0.492,33.742,0.492 c4.355,0,8.21-2.819,9.53-6.97c0.444-1.398,10.89-34.795,10.89-82.035C452.424,85.99,441.978,52.594,441.534,51.195z M95.954,197.214c-4.429,4.193-10.073,9.536-15.044,13.685V55.562c4.971,4.149,10.615,9.492,15.044,13.685 c13.308,12.598,26.035,24.64,38.468,29.189v69.588C121.988,172.574,109.262,184.616,95.954,197.214z M309.478,248.589 c3.265,4.662,4.519,10.316,3.53,15.922l-10.4,58.983c-0.988,5.605-4.101,10.49-8.763,13.754c-1.758,1.231-3.658,2.175-5.643,2.821 l16.938-96.061C306.785,245.294,308.247,246.831,309.478,248.589z M371.889,209.424l-33.044,187.405 c-0.483,2.739-6.69,6.596-18.977,6.596c-3.851,0-7.992-0.386-12.31-1.147c-9.712-1.712-17.9-4.915-23.057-9.019 c-3.071-2.444-4.787-5.05-4.478-6.801l4.487-25.446c7.409-0.506,14.567-3.012,20.807-7.381c9.038-6.329,15.071-15.798,16.986-26.664 l10.4-58.982c1.917-10.866-0.514-21.828-6.842-30.867c-4.37-6.24-10.238-11.046-17.028-14.055l2.86-16.219 c0.48-2.724-0.189-5.525-1.849-7.738c-1.66-2.212-4.162-3.639-6.912-3.939c-75.64-8.27-129.848-21.627-148.512-26.643V98.259 c0.022-0.006,0.045-0.011,0.068-0.017c75.655-19.298,154.884-30.459,236.053-33.292c2.911,11.948,7.882,36.943,7.882,68.281 c0,31.319-4.965,56.302-7.876,68.258c-2.797-0.099-5.594-0.2-8.388-0.319C377.161,200.962,372.759,204.487,371.889,209.424z M424.363,202.21c-4.441-0.03-8.909-0.095-13.385-0.176c3.215-14.227,7.446-38.672,7.446-68.803c0-30.137-4.232-54.586-7.448-68.813 c4.457-0.078,8.918-0.14,13.387-0.169c2.888,11.709,8.061,37.135,8.061,68.981C432.424,165.08,427.249,190.507,424.363,202.21z"/> </g>
</svg>